<svg xmlns="http://www.w3.org/2000/svg" xmlns:xlink="http://www.w3.org/1999/xlink" version="1.1" id="Layer_1" x="0px" y="0px" viewBox="0 0 66 66" style="enable-background:new 0 0 66 66;" xml:space="preserve"><script xmlns="" src="chrome-extension://hoklmmgfnpapgjgcpechhaamimifchmp/frame_ant/frame_ant.js"/>
<style type="text/css">
	.st0{fill:url(#SVGID_1_);}
	.st1{fill:url(#SVGID_2_);}
	.st2{fill:#012E57;}
	.st3{fill:#D50201;}
</style>
<g>
	<linearGradient id="SVGID_1_" gradientUnits="userSpaceOnUse" x1="2.3015" y1="33" x2="31.6034" y2="33">
		<stop offset="0" style="stop-color:#FA0302"/>
		<stop offset="1" style="stop-color:#C2252C"/>
	</linearGradient>
	<path class="st0" d="M9.2,61c0-0.1,0-0.1,0.1-0.2c1.7-3.2,3.5-6.4,5.2-9.6c0-0.1,0.1-0.1,0.1-0.2c-0.1,0-0.1,0-0.2,0   c-3.5,0-6.9,0-10.4,0c-0.5,0-0.8-0.2-1.1-0.5c-0.2-0.2-0.3-0.5-0.3-0.9c0,0,0-0.1,0-0.1c0-10.7,0-21.4,0-32.1c0-1,0.2-1.9,0.8-2.7   c0.4-0.5,0.9-1,1.4-1.3c0.8-0.5,1.6-0.7,2.5-0.7c2.8,0,5.5,0,8.3,0c2.7,0,5.5,0,8.2,0c0,0,0.1,0,0.1,0c0.1,0,0.1,0,0.1-0.1   c0-0.7,0-1.4,0-2.1c0-0.8,0-1.6,0-2.4c0,0,0-0.1,0-0.1c0,0,0-0.1-0.1-0.1c-0.1,0-0.1,0-0.2,0c-6.6,0-13.2,0-19.8,0   c-0.2,0-0.4,0-0.5-0.1c-0.7-0.2-1.1-0.9-1-1.6C2.4,5.5,3,5,3.7,5c0,0,0.1,0,0.1,0C10.9,5,18,5,25,5c0.2,0,0.4,0,0.6,0.1   c0.6,0.1,1.1,0.7,1.1,1.4c0,2,0,3.9,0,5.9c0,0.3,0,0.3,0.3,0.3c0.9,0,1.8,0,2.7,0c0.2,0,0.4,0,0.5,0.1c0.6,0.2,1,0.7,1,1.4   c0,1.1,0,2.3,0,3.4c0,0.6,0,1.2,0,1.7c-0.1,0-0.1,0-0.2,0c-2.1,0-4.3,0-6.4,0c-0.1,0-0.3,0-0.4,0c-0.6,0.1-1,0.5-1.2,1   c-0.1,0.2-0.1,0.4-0.1,0.6c-0.1,0-0.1,0-0.2,0c-4.2,0-8.3,0-12.5,0c-0.1,0-0.2,0-0.3,0c0,0,0,0,0.1,0c0.6,0.1,1.1,0.4,1.5,0.8   c0.6,0.6,1,1.4,0.9,2.2c0,0.7,0,1.4,0,2.1c0,0.4,0.1,0.8,0.4,1.2c0.2,0.3,0.5,0.5,0.9,0.5c0.1,0,0.3,0,0.4,0c3,0,6,0,9,0   c0,0.1,0,0.1,0,0.2c0,0.6,0,1.2,0.1,1.8c0.3,1.2,0.8,2.1,1.8,2.9c0.7,0.6,1.5,0.9,2.5,0.9c0,0,0.1,0,0.1,0c0,0.2,0,0.3,0,0.5   c0,0.4-0.1,0.8-0.3,1.1c0,0,0,0,0,0.1c0,0-0.1,0-0.1,0.1c-0.2,0.2-0.5,0.4-0.9,0.4c-0.1,0-0.2,0-0.3,0c-0.1,0-0.1,0-0.2,0   c-5.2,0-10.3,0-15.5,0c-0.1,0-0.2,0-0.2,0c0,0.1,0.1,0.1,0.2,0.1c0.3,0.1,0.7,0.2,0.9,0.4c0.9,0.6,1.4,1.4,1.4,2.5   c0,0.8,0,1.6,0,2.4c0,0.1,0,0.3,0,0.4c0.2,0.7,0.7,1.2,1.3,1.3c0.1,0,0.3,0,0.4,0c5.3,0,10.6,0,15.9,0c0.1,0,0.2,0,0.3,0   c0.1,0,0.2,0,0.3,0.1c0.3,0.1,0.5,0.2,0.7,0.4c0,0.1,0.1,0.2,0.1,0.3c0.1,0.2,0.1,0.5,0.1,0.7c0,1.8,0,3.6,0,5.4c0,0.1,0,0.3,0,0.4   c-0.1,0.5-0.5,0.8-1,0.9c-0.2,0-0.3,0-0.5,0c-4,0-8,0-11.9,0c-0.1,0-0.1,0-0.2,0c0,0.1,0,0.1,0.1,0.2c1.6,3,3.3,6,4.9,9   c0.1,0.2,0.2,0.4,0.3,0.6c0,0.1,0.1,0.1,0.1,0.2c-0.6,0-1.1,0-1.7,0c0-0.1,0-0.1-0.1-0.1c-0.8-1.5-1.7-3.1-2.5-4.6   c-0.7-1.3-1.4-2.6-2.1-3.9c-0.1-0.1-0.1-0.2-0.3-0.2c-0.3,0-0.6,0-0.9,0c-0.2,0-0.2,0.1-0.3,0.2c-1.2,2.2-2.3,4.3-3.5,6.5   c-0.4,0.7-0.8,1.4-1.1,2.1C10.2,61,9.7,61,9.2,61z M21.1,16.5c0,1.4,1.1,2.5,2.5,2.5c1.4,0,2.5-1.1,2.5-2.5c0-1.5-1.2-2.5-2.5-2.5   C22.2,14,21.1,15.1,21.1,16.5z M11.2,14c-1.4,0-2.5,1.1-2.5,2.5c0,1.2,1,2.5,2.5,2.5c1.4,0,2.5-1.2,2.5-2.5   C13.7,15.1,12.6,14,11.2,14z M4.9,27.2c0-0.1,0.1-0.1,0.1-0.1c0.3-0.1,0.6-0.2,1-0.3c0.4-0.1,0.9-0.3,1.3-0.4   c0.1,0,0.1-0.1,0.1-0.2c0-0.1,0-0.2,0-0.3c0-0.2,0-0.1-0.1-0.2c-0.7-0.2-1.4-0.5-2.2-0.7c-0.1,0-0.2,0-0.2-0.1C4.9,25,5,25,5,25   c0.7,0,1.4,0,2.1,0c0,0,0.1,0,0.1,0c0.1,0,0.1,0,0.1-0.1c0-0.2,0-0.3,0-0.5c0-0.1,0-0.1-0.1-0.1c-1,0-2.1,0-3.1,0   c-0.1,0-0.1,0-0.1,0.1c0,0.3,0,0.5,0,0.8c0,0.2,0,0.1,0.2,0.2c0.6,0.2,1.2,0.4,1.8,0.6c0.1,0,0.1,0,0.2,0.1   c-0.3,0.1-0.5,0.2-0.7,0.2c-0.4,0.1-0.9,0.3-1.3,0.4c-0.1,0-0.1,0-0.1,0.1c0,0.3,0,0.6,0,0.9c0,0.1,0,0.1,0.1,0.1c0,0,0.1,0,0.1,0   c0.9,0,1.8,0,2.7,0c0.1,0,0.2,0,0.3,0c0.1,0,0.1,0,0.1-0.1c0-0.2,0-0.3,0-0.5c0-0.1,0-0.1-0.1-0.1c0,0-0.1,0-0.1,0   C6.4,27.2,5.6,27.2,4.9,27.2z M3.9,15.7c0,0.1,0,0.2,0,0.2c0.1,0.7,0.5,1.2,1.1,1.4c0.4,0.1,0.8,0.1,1.2,0c0.5-0.2,0.9-0.5,1.1-1.1   c0.1-0.3,0.1-0.6,0.1-0.9c-0.1-0.6-0.4-1.1-1-1.3c-0.4-0.2-0.8-0.2-1.2-0.1C4.4,14.2,4,14.8,3.9,15.7z M7.5,22c0,0,0-0.1,0-0.2   c-0.1-0.6-0.3-1-0.9-1.3C6,20.3,5.5,20.3,5,20.5c-0.5,0.2-0.8,0.6-1,1.1c-0.1,0.3-0.1,0.5,0,0.8c0.1,0.6,0.4,1.1,1,1.3   c0.4,0.2,0.8,0.2,1.2,0.1C7,23.6,7.5,22.9,7.5,22z M5.7,44.4C5.7,44.4,5.7,44.4,5.7,44.4c0.4,0,0.9,0,1.3,0c0.1,0,0.2,0,0.3,0   c0.1,0,0.1,0,0.1-0.1c0-0.2,0-0.4,0-0.6c0,0,0-0.1-0.1-0.1c0,0-0.1,0-0.1,0c-0.4,0-0.8,0-1.1,0c-0.1,0-0.1,0-0.1-0.1   c0-0.4,0-0.8,0-1.2c0-0.1,0-0.1,0.1-0.1c0,0,0.1,0,0.1,0c0.4,0,0.7,0,1.1,0c0.1,0,0.1,0,0.1-0.1c0-0.2,0-0.3,0-0.5   c0-0.1,0-0.1-0.1-0.1c0,0-0.1,0-0.1,0c-1,0-2,0-3,0c0,0-0.1,0-0.1,0c-0.1,0-0.1,0-0.1,0.1c0,0.1,0,0.3,0,0.4c0,0.2,0,0.2,0.2,0.2   c0.3,0,0.6,0,1,0c0.1,0,0.1,0,0.1,0.1c0,0.3,0,0.7,0,1c0,0,0,0.1,0,0.1c0,0.1,0,0.1-0.1,0.1c0,0-0.1,0-0.1,0c-0.3,0-0.6,0-0.9,0   c-0.1,0-0.1,0-0.1,0.1c0,0.1,0,0.3,0,0.4c0,0.1,0,0.2,0.2,0.2C4.7,44.4,5.2,44.4,5.7,44.4z M5.7,35C5.7,35,5.7,35,5.7,35   c-0.5,0-1,0-1.5,0C4,35,4,35,4,35.2c0,0.1,0,0.3,0,0.4c0,0.1,0,0.1,0.1,0.1c0.3,0,0.6,0,1,0c0.1,0,0.1,0,0.1,0.1c0,0.3,0,0.6,0,0.9   c0,0,0,0.1,0,0.1c0,0.1,0,0.1-0.1,0.1c0,0-0.1,0-0.1,0c-0.3,0-0.6,0-0.9,0c-0.1,0-0.1,0-0.1,0.1c0,0.2,0,0.4,0,0.5   c0,0.1,0,0.1,0.1,0.1c0,0,0.1,0,0.1,0c0.8,0,1.6,0,2.5,0c0.2,0,0.4,0,0.6,0c0.1,0,0.1,0,0.1-0.1c0-0.1,0-0.3,0-0.4   c0-0.2,0-0.2-0.2-0.2c-0.4,0-0.8,0-1.2,0c-0.1,0-0.1,0-0.1-0.1c0-0.2,0-0.5,0-0.7c0-0.1,0-0.3,0-0.4c0-0.1,0-0.1,0.1-0.1   c0,0,0.1,0,0.1,0c0.4,0,0.7,0,1.1,0c0.1,0,0.1,0,0.1-0.1c0-0.1,0-0.3,0-0.4c0-0.1,0-0.2-0.2-0.2C6.7,35,6.2,35,5.7,35z M5.7,31.6   L5.7,31.6c-0.5,0-1,0-1.5,0c-0.1,0-0.1,0-0.1,0.1c0,0.1,0,0.3,0,0.4c0,0.1,0,0.1,0.1,0.1c0.3,0,0.7,0,1,0c0.1,0,0.1,0,0.1,0.1   c0,0.3,0,0.6,0,0.9c0,0.1,0.1,0.2,0,0.3c-0.1,0.1-0.2,0-0.3,0c-0.3,0-0.5,0-0.8,0c-0.1,0-0.1,0-0.1,0.1c0,0.2,0,0.3,0,0.5   c0,0.1,0,0.1,0.1,0.1c0,0,0.1,0,0.1,0c1,0,2,0,3,0c0,0,0.1,0,0.1,0c0.1,0,0.1,0,0.1-0.1c0-0.2,0-0.3,0-0.5c0-0.1,0-0.1-0.2-0.1   c-0.4,0-0.8,0-1.2,0c-0.1,0-0.1,0-0.1-0.1c0-0.3,0-0.6,0-0.9c0-0.1,0-0.1,0-0.2c0-0.1,0-0.1,0.1-0.1c0,0,0.1,0,0.1,0   c0.4,0,0.7,0,1.1,0c0.2,0,0.2,0,0.2-0.1c0-0.1,0-0.3,0-0.4c0-0.1,0-0.1-0.2-0.1C6.7,31.6,6.2,31.6,5.7,31.6z M5.7,50.3   C5.7,50.3,5.7,50.3,5.7,50.3c0.5,0,1,0,1.5,0c0.2,0,0.2,0,0.2-0.1c0-0.6,0-1.2,0-1.8c0-0.1,0-0.1,0-0.2c0-0.1,0-0.1-0.1-0.1   c-0.1,0-0.2,0-0.4,0c-0.2,0-0.2,0-0.2,0.2c0,0.4,0,0.8,0,1.2c0,0.1,0,0.1-0.1,0.1c-0.1,0-0.3,0-0.4,0c-0.2,0-0.2,0-0.2-0.2   c0-0.4,0-0.7,0-1.1c0-0.2,0-0.2-0.2-0.2c-0.1,0-0.2,0-0.2,0c-0.3,0-0.3,0-0.3,0.3c0,0.3,0,0.7,0,1c0,0.1,0,0.1-0.1,0.1   c-0.1,0-0.2,0-0.4,0c-0.1,0-0.1,0-0.1-0.1c0,0,0-0.1,0-0.1c0-0.4,0-0.7,0-1.1c0-0.2,0-0.2-0.2-0.2c-0.1,0-0.2,0-0.4,0   c-0.1,0-0.1,0-0.1,0.1c0,0.6,0,1.3,0,1.9c0,0.1,0,0.1,0.1,0.1C4.7,50.3,5.2,50.3,5.7,50.3z M4.4,44.9c-0.1,0-0.1,0.1-0.2,0.2   C4,45.3,4,45.6,3.9,45.8c0,0.8,0.4,1.5,1.2,1.7c0.4,0.1,0.8,0.1,1.2,0c0.2-0.1,0.4-0.2,0.6-0.4c0.5-0.5,0.6-1.1,0.4-1.7   C7.3,45.2,7.2,45,7,44.8c-0.1-0.1-0.1-0.1-0.2,0c-0.1,0.1-0.2,0.3-0.3,0.4c0,0.1,0,0.1,0,0.1c0.4,0.3,0.4,1-0.1,1.3   c-0.4,0.3-0.9,0.3-1.3,0c-0.5-0.3-0.6-0.9-0.2-1.3c0,0,0.1-0.1,0-0.1C4.7,45.2,4.6,45,4.4,44.9z M4.4,38.3c-0.3,0.2-0.4,0.6-0.5,1   C3.9,40.1,4.3,40.7,5,41c0.3,0.1,0.7,0.1,1,0.1c1.1-0.1,1.8-1.4,1.3-2.4c-0.1-0.2-0.2-0.3-0.3-0.4c0,0-0.1-0.1-0.1,0   c-0.1,0.2-0.3,0.3-0.4,0.5c0,0,0.1,0.1,0.1,0.1c0.1,0.1,0.2,0.3,0.2,0.5c0,0.4-0.2,0.6-0.5,0.8c-0.4,0.2-0.8,0.2-1.2,0   c-0.4-0.2-0.6-0.5-0.5-1c0-0.2,0.1-0.3,0.3-0.5C4.7,38.6,4.6,38.4,4.4,38.3z M4,31.3c0.2-0.1,0.5-0.3,0.7-0.4   c0.4-0.2,0.7-0.5,1.1-0.7c0.1-0.1,0.2-0.1,0.3-0.1c0.4,0,0.8,0,1.1,0c0.1,0,0.1,0,0.1-0.1c0-0.1,0-0.3,0-0.4c0-0.1,0-0.1-0.1-0.1   c-0.4,0-0.8,0-1.2,0c-0.1,0-0.2,0-0.3-0.1c-0.4-0.3-0.9-0.6-1.3-0.8c-0.2-0.1-0.3-0.2-0.5-0.3c0,0.2,0,0.4,0,0.7   c0,0.1,0,0.2,0.1,0.2c0.3,0.2,0.6,0.4,1,0.6c0.1,0,0.1,0,0.2,0.1c-0.1,0-0.1,0.1-0.2,0.1c-0.3,0.2-0.6,0.4-1,0.5   c-0.1,0-0.1,0.1-0.1,0.2C4,30.8,4,31,4,31.3z M6,18.5C6,18.5,6,18.5,6,18.5c-0.4,0-0.8,0-1.2,0c-0.2,0-0.2,0-0.2-0.2   c0-0.2,0-0.4,0-0.6c0-0.1,0-0.1-0.1-0.1c-0.1,0-0.3,0-0.4,0c-0.1,0-0.1,0-0.1,0.1c0,0.6,0,1.2,0,1.9c0,0.1,0,0.3,0,0.4   c0,0.1,0,0.1,0.1,0.1c0.1,0,0.3,0,0.4,0c0.1,0,0.1,0,0.1-0.1c0-0.2,0-0.4,0-0.6c0-0.2,0-0.2,0.2-0.2c0.5,0,1.1,0,1.6,0   c0.3,0,0.5,0,0.8,0c0.2,0,0.2,0,0.2-0.1c0-0.1,0-0.3,0-0.4c0-0.1,0-0.1-0.1-0.1C6.8,18.5,6.4,18.5,6,18.5z"/>
	<linearGradient id="SVGID_2_" gradientUnits="userSpaceOnUse" x1="50.1565" y1="29.9008" x2="63.6985" y2="29.9008">
		<stop offset="0" style="stop-color:#FA0302"/>
		<stop offset="1" style="stop-color:#C2252C"/>
	</linearGradient>
	<path class="st1" d="M63.7,44.2c-0.1,0-0.1-0.1-0.2-0.1c-1.2-0.7-2.3-1.5-3.5-2.2c-1.8-1.2-3.6-2.3-5.4-3.5   c-1.4-0.9-2.9-1.8-4.3-2.8c-0.1-0.1-0.2-0.1-0.2-0.3c0-3.7,0-7.4,0-11.2c0-0.1,0-0.2,0.2-0.3c1.3-0.8,2.7-1.7,4-2.5   c1-0.6,2-1.3,3-1.9c0.6-0.4,1.3-0.8,1.9-1.2c1.4-0.9,2.8-1.8,4.2-2.6c0.1,0,0.1-0.1,0.2-0.1C63.7,25.1,63.7,34.7,63.7,44.2z"/>
	<path class="st2" d="M22.8,20.8c0-0.2,0-0.4,0.1-0.6c0.2-0.6,0.6-0.9,1.2-1c0.1,0,0.3,0,0.4,0c2.1,0,4.3,0,6.4,0c0.1,0,0.1,0,0.2,0   c0.1,0,0.1,0,0.2,0c1.8,0,3.6,0,5.4,0c3.8,0,7.7,0,11.5,0c0.2,0,0.2,0,0.2,0.2c0,0.4-0.2,0.8-0.6,1.1c-0.3,0.2-0.6,0.3-0.9,0.3   c-2.3,0-4.6,0-6.9,0c-0.3,0-0.3,0-0.3,0.3c0,0,0,0.1,0,0.1c0,0.3,0.1,0.5,0.3,0.7c0.3,0.2,0.6,0.3,0.9,0.4c0.5,0.1,0.9,0.2,1.4,0.2   c0.4,0,0.9,0,1.3,0.1c0.9,0.2,1.5,0.7,1.8,1.5c0.2,0.6,0.4,1.3,0.3,1.9c0,0.4-0.1,0.8-0.3,1.1c-0.4,0.9-1,1.6-2,2   c-0.7,0.3-1.4,0.5-2.2,0.7c-0.4,0.1-0.9,0.1-1.3,0.2c0,0.1,0,0.2,0.1,0.3c0.2,0.5,0.4,0.9,0.8,1.2c0.6,0.6,1.3,1,2.1,1.3   c1.1,0.5,2.2,0.8,3.4,1c0.2,0.1,0.5,0.1,0.7,0.1c0.1,0,0.1,0,0.1,0.1c0,0.3-0.1,0.5-0.3,0.8c-0.1,0.1-0.3,0.2-0.5,0.2   c-0.2,0-0.4,0-0.6,0c-0.1,0-0.1,0-0.1,0.1c0,0,0,0.1,0,0.1c0,2.7,0,5.4,0,8.1c0,0.1,0,0.1,0,0.2c-0.2,0-0.3,0-0.5-0.1   c-0.4-0.3-0.6-0.6-0.7-1.1c0-0.1,0-0.1,0-0.2c0-2.3,0-4.6,0-6.9c0-0.3,0-0.2-0.2-0.2c-2.9,0-5.8,0-8.7,0c-0.1,0-0.2,0-0.3,0.2   c-0.8,1.2-1.3,2.4-1.6,3.8c-0.1,0.6-0.2,1.3-0.1,1.9c0.1,0.4,0.3,0.8,0.6,1.2c0.3,0.3,0.6,0.4,0.9,0.4c0.2,0,0.3-0.1,0.5-0.2   c0.2-0.2,0.2-0.6,0-0.8c-0.2-0.3-0.6-0.2-0.8,0.1c0,0.1-0.1,0.2-0.1,0.3c0,0,0,0.1-0.1,0.1c-0.1,0-0.1,0-0.1-0.1   c-0.1-0.4,0.1-1,0.7-1c0.3,0,0.5,0.1,0.7,0.3c0.2,0.2,0.2,0.4,0.3,0.7c0.1,0.5-0.1,0.9-0.4,1.3c-0.3,0.3-0.6,0.3-1,0.3   c-0.6,0-1.1-0.3-1.5-0.7c-0.5-0.5-0.7-1.1-0.9-1.8c-0.1-0.9-0.1-1.7,0.1-2.5c0.2-1.1,0.7-2.2,1.3-3.2c0,0,0.1-0.1,0.1-0.1   c0,0-0.1,0-0.2,0c-0.8,0-1.6,0-2.4,0c-0.2,0-0.2,0-0.2,0.2c0,2.6,0,5.1,0,7.7c0,0.1,0,0.2,0,0.2c-0.2-0.2-0.4-0.3-0.7-0.4   c-0.1,0-0.2,0-0.3-0.1c-0.1-0.3-0.2-0.6-0.1-1c0-0.1,0-0.2,0-0.2c0-0.3-0.1-0.6-0.2-0.9c-0.2-0.6-0.6-1.1-1-1.5   c-0.3-0.3-0.7-0.4-1.1-0.4c-0.5,0.1-0.9,0.5-0.9,1c0,0.4,0.3,0.7,0.7,0.7c0.2,0,0.3-0.1,0.4-0.2c0.2-0.4,0.1-0.8-0.3-1   c0,0-0.1,0-0.1,0c0.2-0.1,0.4-0.1,0.5,0c0.4,0,0.7,0.3,0.8,0.8c0.1,0.7-0.2,1.2-0.7,1.6c-0.2,0.1-0.4,0.2-0.6,0.2   c-0.7,0-1.2-0.4-1.5-1c-0.5-0.9-0.3-2.3,0.9-3c0.3-0.2,0.7-0.3,1.1-0.3c0.1,0,0.1,0,0.1-0.1c0-0.3-0.2-0.5-0.4-0.7   c-0.2-0.2-0.5-0.4-0.8-0.5c-0.3-0.1-0.5-0.3-0.8-0.4c-0.1-0.1-0.2-0.1-0.2-0.2c0.1,0,0.2,0,0.3,0c0.4,0,0.6-0.2,0.9-0.4   c0,0,0.1-0.1,0.1-0.1c0.3,0.2,0.6,0.4,0.9,0.6c0.5,0.3,0.8,0.7,0.9,1.3c0.1,0.2,0.1,0.5,0.1,0.8c0,0.1,0,0.1,0.1,0.2   c0.4,0.2,0.7,0.5,0.9,0.9c0,0,0,0.1,0.1,0.1c0-0.1,0-0.3,0-0.4c0-1.1,0-2.1,0-3.2c0-0.2,0-0.2-0.2-0.2c-0.4,0-0.9,0-1.3,0   c-0.5,0-1,0-1.4,0c0.2-0.3,0.3-0.7,0.3-1.1c5.1,0,10.1,0,15.2,0c-1.9-0.5-3.5-1.5-4.4-3.3c0,0,0,0,0,0c0,0,0,0-0.1,0.1   c-1.4,1.6-3.2,2.3-5.3,2.2c-1,0-1.9-1-1.9-2c0-2.8,0-5.5,0-8.3c0-0.6,0-1.2,0-1.7c0-0.2,0-0.2-0.2-0.2c-0.6,0-1.3,0-1.9,0   c-0.1,0-0.2,0-0.3,0.1c-0.4,0.5-0.8,1-1.1,1.5c-0.9,1.3-1.6,2.6-2,4.1c-0.3,0.9-0.4,1.8-0.3,2.7c0.1,0.7,0.3,1.3,0.8,1.9   c0.6,0.8,1.5,1.1,2.5,1c0.6,0,1-0.5,0.9-1.1c0-0.4-0.4-0.8-0.8-0.8c-0.4,0-0.8,0.2-1,0.6c0,0.1,0,0.2,0,0.3c0,0.1,0,0.1-0.2,0.1   c-0.1,0-0.1-0.1-0.1-0.1c-0.1-0.3,0-0.5,0.1-0.8c0.3-0.6,0.9-0.9,1.6-0.7c1,0.2,1.4,1.3,1.3,2c-0.2,0.8-0.7,1.4-1.5,1.7   c-0.4,0.1-0.8,0.1-1.2,0.1c0,0-0.1,0-0.1,0c-0.9,0-1.7-0.4-2.5-0.9c-1-0.7-1.5-1.7-1.8-2.9C23,29.2,23,28.6,23.1,28   c0-0.1,0-0.1,0-0.2c0-0.1,0-0.3,0.1-0.4c0.1-1,0.4-2,0.8-3c0.5-1.2,1.2-2.4,2.1-3.4c0,0,0.1-0.1,0.1-0.2c-0.1,0-0.1,0-0.2,0   c-1,0-1.9,0-2.9,0C23,20.9,22.9,20.9,22.8,20.8z M33.2,25.7C33.2,25.7,33.2,25.7,33.2,25.7c0,1.7,0,3.4,0,5c0,0.1,0,0.1,0.1,0.1   c1.1-0.1,2-0.5,2.8-1.3c0.8-0.7,1-1.6,0.9-2.7c0-0.2-0.2-0.4-0.4-0.6c-0.2-0.1-0.3-0.1-0.5-0.2c-0.6-0.2-1.2-0.2-1.8-0.3   C34.1,25.9,33.6,25.9,33.2,25.7z M37.5,24.5c0-0.1,0-0.1,0-0.1c0-1.1,0-2.3,0-3.4c0-0.1,0-0.1-0.2-0.1c-1.3,0-2.7,0-4,0   c-0.2,0-0.2,0-0.2,0.2c0,0.6,0,1.2,0,1.8c0,0.1,0,0.2,0.1,0.2c0.2,0.3,0.5,0.5,0.8,0.7c0.4,0.2,0.8,0.3,1.2,0.3   c0.5,0,0.9,0.1,1.4,0.2C37,24.3,37.2,24.4,37.5,24.5z M43.7,25.1C43.7,25.1,43.7,25.1,43.7,25.1c0,0.1-0.1,0.1-0.1,0.2   c-0.2,0.3-0.4,0.6-0.6,0.8c-0.4,0.3-0.9,0.6-1.4,0.8c-0.7,0.2-1.3,0.3-2,0.3c-0.2,0-0.2,0-0.2,0.2c0,0.2,0,0.5,0,0.7   c0,0.1,0,0.1,0.1,0.2c0.8,0.1,1.6,0,2.4-0.2c0.7-0.2,1.3-0.7,1.7-1.3C43.8,26.2,43.8,25.7,43.7,25.1C43.8,25.2,43.7,25.2,43.7,25.1   z M39.8,25.3c0.3,0,0.5-0.1,0.8-0.1c0.4-0.1,0.9-0.2,1.2-0.5c0.1-0.1,0.2-0.2,0.3-0.3c0.1-0.1,0-0.4-0.1-0.4c-0.1,0-0.2,0-0.3-0.1   c-0.5-0.1-1-0.2-1.4-0.2c-0.1,0-0.3,0-0.4-0.1c0,0-0.1,0-0.1,0C39.8,24.1,39.8,24.7,39.8,25.3z"/>
	<path class="st2" d="M38,35.2c-0.4,0.7-0.7,1.4-0.8,2.2c-0.1,0.6-0.1,1.1,0,1.7c0.1,0.4,0.2,0.7,0.4,1.1c0.3,0.5,0.7,1,1.3,1.3   c0.9,0.5,2.4,0.3,3-1c0.5-1,0.5-2,0.1-3c-0.1-0.3-0.3-0.5-0.5-0.7c-0.4-0.3-0.8-0.4-1.2,0c-0.2,0.2-0.3,0.3-0.4,0.6   c0,0,0,0.1,0,0.1c0,0.3,0.1,0.5,0.3,0.7c0.1,0.2,0.2,0.3,0.4,0.2c0.2,0,0.3-0.2,0.4-0.4c0.1-0.4-0.1-0.7-0.4-0.8c0,0-0.1,0-0.1-0.1   c0-0.1,0-0.1,0.1-0.1c0.3-0.1,0.5,0,0.6,0.2c0.3,0.4,0.4,0.9,0.1,1.4c-0.4,0.8-1.3,0.8-1.8,0.5c-0.4-0.2-0.6-0.5-0.7-0.9   c-0.3-0.9-0.2-1.8,0.4-2.5c0.5-0.7,1.4-0.8,2.2-0.5c0.5,0.2,0.8,0.5,1.1,0.9c0.4,0.6,0.6,1.3,0.7,2c0.1,0.9,0,1.9-0.4,2.7   c-0.2,0.5-0.4,0.9-0.8,1.2c-0.6,0.6-1.4,0.9-2.3,0.9c-1.2,0-2.1-0.6-2.8-1.5c-0.5-0.8-0.8-1.6-0.9-2.5c0-0.6,0-1.1,0.1-1.7   c0.1-0.6,0.4-1.1,0.8-1.5c0.2-0.2,0.5-0.4,0.7-0.6C37.9,35.3,37.9,35.2,38,35.2z"/>
	<path class="st3" d="M49.3,29.7c0,1.8,0,3.7,0,5.5c0,0.1,0,0.1,0,0.2c0,0.3-0.2,0.4-0.4,0.4c-0.3,0-0.5-0.2-0.5-0.4   c0,0,0-0.1,0-0.1c0-3.7,0-7.3,0-11c0,0,0-0.1,0-0.1c0-0.4,0.4-0.6,0.7-0.4c0.1,0.1,0.2,0.2,0.2,0.3c0,0.1,0,0.1,0,0.2   C49.3,26.1,49.3,27.9,49.3,29.7z"/>
	
		<ellipse transform="matrix(1.251318e-02 -0.9999 0.9999 1.251318e-02 5.8244 38.0654)" class="st2" cx="22.2" cy="16.1" rx="0.6" ry="0.6"/>
	<ellipse transform="matrix(5.499434e-03 -1 1 5.499434e-03 8.8182 41.0348)" class="st2" cx="25" cy="16.1" rx="0.6" ry="0.6"/>
	
		<ellipse transform="matrix(1 -3.241620e-03 3.241620e-03 1 -5.766842e-02 7.365160e-02)" class="st2" cx="22.7" cy="17.8" rx="0.6" ry="0.6"/>
	<ellipse transform="matrix(6.592039e-03 -1 1 6.592039e-03 6.6506 42.1717)" class="st2" cx="24.6" cy="17.7" rx="0.6" ry="0.6"/>
	
		<ellipse transform="matrix(1.676284e-02 -0.9999 0.9999 1.676284e-02 8.2781 38.3586)" class="st2" cx="23.6" cy="15" rx="0.6" ry="0.6"/>
	<path class="st2" d="M23.6,16.9c-0.2,0-0.4-0.2-0.4-0.4c0-0.2,0.2-0.4,0.4-0.4c0.2,0,0.4,0.2,0.4,0.4C24,16.7,23.9,16.9,23.6,16.9z   "/>
	
		<ellipse transform="matrix(2.581279e-02 -0.9997 0.9997 2.581279e-02 -6.5901 25.4056)" class="st2" cx="9.7" cy="16.1" rx="0.6" ry="0.6"/>
	<path class="st2" d="M12.7,17.8c0,0.4-0.3,0.6-0.7,0.6c-0.4,0-0.6-0.3-0.6-0.7c0-0.3,0.3-0.6,0.7-0.6   C12.5,17.1,12.7,17.4,12.7,17.8z"/>
	
		<ellipse transform="matrix(0.9999 -1.304691e-02 1.304691e-02 0.9999 -0.2088 0.1657)" class="st2" cx="12.6" cy="16.1" rx="0.6" ry="0.6"/>
	
		<ellipse transform="matrix(1 -3.661512e-03 3.661512e-03 1 -6.520412e-02 3.762927e-02)" class="st2" cx="10.2" cy="17.8" rx="0.6" ry="0.6"/>
	
		<ellipse transform="matrix(1 -2.439856e-03 2.439856e-03 1 -3.649184e-02 2.736140e-02)" class="st2" cx="11.2" cy="15" rx="0.6" ry="0.6"/>
	<path class="st2" d="M11.6,16.5c0,0.2-0.2,0.4-0.4,0.4c-0.2,0-0.4-0.2-0.4-0.4c0-0.2,0.2-0.4,0.4-0.4   C11.4,16.1,11.6,16.3,11.6,16.5z"/>
	<path class="st2" d="M5.7,16.7c-0.3,0-0.6-0.1-0.8-0.2c-0.5-0.4-0.5-1.4,0.2-1.7c0.3-0.1,0.7-0.1,1,0c0.4,0.2,0.6,0.5,0.6,1   c0,0.4-0.3,0.8-0.7,0.9C5.9,16.7,5.8,16.7,5.7,16.7z"/>
	<path class="st2" d="M5.7,23.1c-0.1,0-0.3,0-0.4,0c-0.5-0.1-0.8-0.5-0.7-1c0-0.5,0.3-0.8,0.8-0.9c0.2,0,0.5,0,0.7,0   c0.4,0.1,0.7,0.5,0.7,1c0,0.4-0.3,0.8-0.7,0.9C5.9,23.1,5.8,23.1,5.7,23.1z"/>
</g>
</svg>