<?xml version="1.0" encoding="utf-8"?>
<!-- Generator: Adobe Illustrator 21.0.0, SVG Export Plug-In . SVG Version: 6.00 Build 0)  -->
<svg version="1.1" id="Layer_1" xmlns="http://www.w3.org/2000/svg" xmlns:xlink="http://www.w3.org/1999/xlink" x="0px" y="0px"
	 viewBox="0 0 250 60" style="enable-background:new 0 0 250 60;" xml:space="preserve">
<style type="text/css">
	.st0{fill:#FFFFFF;}
</style>
<g>
	<path class="st0" d="M8.9,58c0-0.1,0-0.1,0.1-0.2c1.7-3.2,3.5-6.4,5.2-9.6c0-0.1,0.1-0.1,0.1-0.2c-0.1,0-0.1,0-0.2,0
		c-3.5,0-6.9,0-10.4,0c-0.5,0-0.8-0.2-1.1-0.5c-0.2-0.2-0.3-0.5-0.3-0.9c0,0,0-0.1,0-0.1c0-10.7,0-21.4,0-32.1c0-1,0.2-1.9,0.8-2.7
		c0.4-0.5,0.9-1,1.4-1.3c0.8-0.5,1.6-0.7,2.5-0.7c2.8,0,5.5,0,8.3,0c2.7,0,5.5,0,8.2,0c0,0,0.1,0,0.1,0c0.1,0,0.1,0,0.1-0.1
		c0-0.7,0-1.4,0-2.1c0-0.8,0-1.6,0-2.4c0,0,0-0.1,0-0.1c0,0,0-0.1-0.1-0.1c-0.1,0-0.1,0-0.2,0c-6.6,0-13.2,0-19.8,0
		c-0.2,0-0.4,0-0.5-0.1C2.3,4.5,1.9,3.8,2,3.1C2.1,2.5,2.7,2,3.4,2c0,0,0.1,0,0.1,0c7.1,0,14.1,0,21.2,0c0.2,0,0.4,0,0.6,0.1
		c0.6,0.1,1.1,0.7,1.1,1.4c0,2,0,3.9,0,5.9c0,0.3,0,0.3,0.3,0.3c0.9,0,1.8,0,2.7,0c0.2,0,0.4,0,0.5,0.1c0.6,0.2,1,0.7,1,1.4
		c0,1.1,0,2.3,0,3.4c0,0.6,0,1.2,0,1.7c-0.1,0-0.1,0-0.2,0c-2.1,0-4.3,0-6.4,0c-0.1,0-0.3,0-0.4,0c-0.6,0.1-1,0.5-1.2,1
		c-0.1,0.2-0.1,0.4-0.1,0.6c-0.1,0-0.1,0-0.2,0c-4.2,0-8.3,0-12.5,0c-0.1,0-0.2,0-0.3,0c0,0,0,0,0.1,0c0.6,0.1,1.1,0.4,1.5,0.8
		c0.6,0.6,1,1.4,0.9,2.2c0,0.7,0,1.4,0,2.1c0,0.4,0.1,0.8,0.4,1.2c0.2,0.3,0.5,0.5,0.9,0.5c0.1,0,0.3,0,0.4,0c3,0,6,0,9,0
		c0,0.1,0,0.1,0,0.2c0,0.6,0,1.2,0.1,1.8c0.3,1.2,0.8,2.1,1.8,2.9c0.7,0.6,1.5,0.9,2.5,0.9c0,0,0.1,0,0.1,0c0,0.2,0,0.3,0,0.5
		c0,0.4-0.1,0.8-0.3,1.1c0,0,0,0,0,0.1c0,0-0.1,0-0.1,0.1c-0.2,0.2-0.5,0.4-0.9,0.4c-0.1,0-0.2,0-0.3,0c-0.1,0-0.1,0-0.2,0
		c-5.2,0-10.3,0-15.5,0c-0.1,0-0.2,0-0.2,0c0,0.1,0.1,0.1,0.2,0.1c0.3,0.1,0.7,0.2,0.9,0.4c0.9,0.6,1.4,1.4,1.4,2.5
		c0,0.8,0,1.6,0,2.4c0,0.1,0,0.3,0,0.4c0.2,0.7,0.7,1.2,1.3,1.3c0.1,0,0.3,0,0.4,0c5.3,0,10.6,0,15.9,0c0.1,0,0.2,0,0.3,0
		c0.1,0,0.2,0,0.3,0.1c0.3,0.1,0.5,0.2,0.7,0.4c0,0.1,0.1,0.2,0.1,0.3c0.1,0.2,0.1,0.5,0.1,0.7c0,1.8,0,3.6,0,5.4c0,0.1,0,0.3,0,0.4
		c-0.1,0.5-0.5,0.8-1,0.9c-0.2,0-0.3,0-0.5,0c-4,0-8,0-11.9,0c-0.1,0-0.1,0-0.2,0c0,0.1,0,0.1,0.1,0.2c1.6,3,3.3,6,4.9,9
		c0.1,0.2,0.2,0.4,0.3,0.6c0,0.1,0.1,0.1,0.1,0.2c-0.6,0-1.1,0-1.7,0c0-0.1,0-0.1-0.1-0.1c-0.8-1.5-1.7-3.1-2.5-4.6
		c-0.7-1.3-1.4-2.6-2.1-3.9c-0.1-0.1-0.1-0.2-0.3-0.2c-0.3,0-0.6,0-0.9,0c-0.2,0-0.2,0.1-0.3,0.2c-1.2,2.2-2.3,4.3-3.5,6.5
		c-0.4,0.7-0.8,1.4-1.1,2.1C9.9,58,9.4,58,8.9,58z M20.8,13.5c0,1.4,1.1,2.5,2.5,2.5c1.4,0,2.5-1.1,2.5-2.5c0-1.5-1.2-2.5-2.5-2.5
		C21.9,11,20.8,12.1,20.8,13.5z M10.9,11c-1.4,0-2.5,1.1-2.5,2.5c0,1.2,1,2.5,2.5,2.5c1.4,0,2.5-1.2,2.5-2.5
		C13.4,12.1,12.3,11,10.9,11z M4.6,24.2c0-0.1,0.1-0.1,0.1-0.1c0.3-0.1,0.6-0.2,1-0.3c0.4-0.1,0.9-0.3,1.3-0.4
		c0.1,0,0.1-0.1,0.1-0.2c0-0.1,0-0.2,0-0.3c0-0.2,0-0.1-0.1-0.2c-0.7-0.2-1.4-0.5-2.2-0.7c-0.1,0-0.2,0-0.2-0.1c0.1,0,0.2,0,0.2,0
		c0.7,0,1.4,0,2.1,0c0,0,0.1,0,0.1,0c0.1,0,0.1,0,0.1-0.1c0-0.2,0-0.3,0-0.5c0-0.1,0-0.1-0.1-0.1c-1,0-2.1,0-3.1,0
		c-0.1,0-0.1,0-0.1,0.1c0,0.3,0,0.5,0,0.8c0,0.2,0,0.1,0.2,0.2c0.6,0.2,1.2,0.4,1.8,0.6c0.1,0,0.1,0,0.2,0.1
		c-0.3,0.1-0.5,0.2-0.7,0.2c-0.4,0.1-0.9,0.3-1.3,0.4c-0.1,0-0.1,0-0.1,0.1c0,0.3,0,0.6,0,0.9c0,0.1,0,0.1,0.1,0.1c0,0,0.1,0,0.1,0
		c0.9,0,1.8,0,2.7,0c0.1,0,0.2,0,0.3,0c0.1,0,0.1,0,0.1-0.1c0-0.2,0-0.3,0-0.5c0-0.1,0-0.1-0.1-0.1c0,0-0.1,0-0.1,0
		C6.1,24.2,5.3,24.2,4.6,24.2z M3.6,12.7c0,0.1,0,0.2,0,0.2c0.1,0.7,0.5,1.2,1.1,1.4c0.4,0.1,0.8,0.1,1.2,0c0.5-0.2,0.9-0.5,1.1-1.1
		c0.1-0.3,0.1-0.6,0.1-0.9c-0.1-0.6-0.4-1.1-1-1.3C5.8,10.9,5.4,10.9,5,11C4.1,11.2,3.6,11.8,3.6,12.7z M7.2,19c0,0,0-0.1,0-0.2
		c-0.1-0.6-0.3-1-0.9-1.3c-0.5-0.3-1.1-0.3-1.6-0.1c-0.5,0.2-0.8,0.6-1,1.1c-0.1,0.3-0.1,0.5,0,0.8c0.1,0.6,0.4,1.1,1,1.3
		c0.4,0.2,0.8,0.2,1.2,0.1C6.7,20.6,7.2,19.9,7.2,19z M5.4,41.4C5.4,41.4,5.4,41.4,5.4,41.4c0.4,0,0.9,0,1.3,0c0.1,0,0.2,0,0.3,0
		c0.1,0,0.1,0,0.1-0.1c0-0.2,0-0.4,0-0.6c0,0,0-0.1-0.1-0.1c0,0-0.1,0-0.1,0c-0.4,0-0.8,0-1.1,0c-0.1,0-0.1,0-0.1-0.1
		c0-0.4,0-0.8,0-1.2c0-0.1,0-0.1,0.1-0.1c0,0,0.1,0,0.1,0c0.4,0,0.7,0,1.1,0c0.1,0,0.1,0,0.1-0.1c0-0.2,0-0.3,0-0.5
		c0-0.1,0-0.1-0.1-0.1c0,0-0.1,0-0.1,0c-1,0-2,0-3,0c0,0-0.1,0-0.1,0c-0.1,0-0.1,0-0.1,0.1c0,0.1,0,0.3,0,0.4c0,0.2,0,0.2,0.2,0.2
		c0.3,0,0.6,0,1,0c0.1,0,0.1,0,0.1,0.1c0,0.3,0,0.7,0,1c0,0,0,0.1,0,0.1c0,0.1,0,0.1-0.1,0.1c0,0-0.1,0-0.1,0c-0.3,0-0.6,0-0.9,0
		c-0.1,0-0.1,0-0.1,0.1c0,0.1,0,0.3,0,0.4c0,0.1,0,0.2,0.2,0.2C4.4,41.4,4.9,41.4,5.4,41.4z M5.4,32C5.4,32,5.4,32,5.4,32
		c-0.5,0-1,0-1.5,0c-0.2,0-0.2,0-0.2,0.1c0,0.1,0,0.3,0,0.4c0,0.1,0,0.1,0.1,0.1c0.3,0,0.6,0,1,0c0.1,0,0.1,0,0.1,0.1
		c0,0.3,0,0.6,0,0.9c0,0,0,0.1,0,0.1c0,0.1,0,0.1-0.1,0.1c0,0-0.1,0-0.1,0c-0.3,0-0.6,0-0.9,0c-0.1,0-0.1,0-0.1,0.1
		c0,0.2,0,0.4,0,0.5c0,0.1,0,0.1,0.1,0.1c0,0,0.1,0,0.1,0c0.8,0,1.6,0,2.5,0c0.2,0,0.4,0,0.6,0c0.1,0,0.1,0,0.1-0.1
		c0-0.1,0-0.3,0-0.4c0-0.2,0-0.2-0.2-0.2c-0.4,0-0.8,0-1.2,0c-0.1,0-0.1,0-0.1-0.1c0-0.2,0-0.5,0-0.7c0-0.1,0-0.3,0-0.4
		c0-0.1,0-0.1,0.1-0.1c0,0,0.1,0,0.1,0c0.4,0,0.7,0,1.1,0c0.1,0,0.1,0,0.1-0.1c0-0.1,0-0.3,0-0.4c0-0.1,0-0.2-0.2-0.2
		C6.4,32,5.9,32,5.4,32z M5.4,28.6C5.4,28.6,5.4,28.6,5.4,28.6c-0.5,0-1,0-1.5,0c-0.1,0-0.1,0-0.1,0.1c0,0.1,0,0.3,0,0.4
		c0,0.1,0,0.1,0.1,0.1c0.3,0,0.7,0,1,0c0.1,0,0.1,0,0.1,0.1c0,0.3,0,0.6,0,0.9c0,0.1,0.1,0.2,0,0.3c-0.1,0.1-0.2,0-0.3,0
		c-0.3,0-0.5,0-0.8,0c-0.1,0-0.1,0-0.1,0.1c0,0.2,0,0.3,0,0.5c0,0.1,0,0.1,0.1,0.1c0,0,0.1,0,0.1,0c1,0,2,0,3,0c0,0,0.1,0,0.1,0
		c0.1,0,0.1,0,0.1-0.1c0-0.2,0-0.3,0-0.5c0-0.1,0-0.1-0.2-0.1c-0.4,0-0.8,0-1.2,0c-0.1,0-0.1,0-0.1-0.1c0-0.3,0-0.6,0-0.9
		c0-0.1,0-0.1,0-0.2c0-0.1,0-0.1,0.1-0.1c0,0,0.1,0,0.1,0c0.4,0,0.7,0,1.1,0c0.2,0,0.2,0,0.2-0.1c0-0.1,0-0.3,0-0.4
		c0-0.1,0-0.1-0.2-0.1C6.4,28.6,5.9,28.6,5.4,28.6z M5.4,47.3C5.4,47.3,5.4,47.3,5.4,47.3c0.5,0,1,0,1.5,0c0.2,0,0.2,0,0.2-0.1
		c0-0.6,0-1.2,0-1.8c0-0.1,0-0.1,0-0.2c0-0.1,0-0.1-0.1-0.1c-0.1,0-0.2,0-0.4,0c-0.2,0-0.2,0-0.2,0.2c0,0.4,0,0.8,0,1.2
		c0,0.1,0,0.1-0.1,0.1c-0.1,0-0.3,0-0.4,0c-0.2,0-0.2,0-0.2-0.2c0-0.4,0-0.7,0-1.1c0-0.2,0-0.2-0.2-0.2c-0.1,0-0.2,0-0.2,0
		c-0.3,0-0.3,0-0.3,0.3c0,0.3,0,0.7,0,1c0,0.1,0,0.1-0.1,0.1c-0.1,0-0.2,0-0.4,0c-0.1,0-0.1,0-0.1-0.1c0,0,0-0.1,0-0.1
		c0-0.4,0-0.7,0-1.1c0-0.2,0-0.2-0.2-0.2c-0.1,0-0.2,0-0.4,0c-0.1,0-0.1,0-0.1,0.1c0,0.6,0,1.3,0,1.9c0,0.1,0,0.1,0.1,0.1
		C4.4,47.3,4.9,47.3,5.4,47.3z M4.1,41.9C4,41.9,4,42,3.9,42c-0.2,0.2-0.3,0.5-0.3,0.8c0,0.8,0.4,1.5,1.2,1.7c0.4,0.1,0.8,0.1,1.2,0
		c0.2-0.1,0.4-0.2,0.6-0.4c0.5-0.5,0.6-1.1,0.4-1.7C7,42.2,6.9,42,6.7,41.8c-0.1-0.1-0.1-0.1-0.2,0c-0.1,0.1-0.2,0.3-0.3,0.4
		c0,0.1,0,0.1,0,0.1c0.4,0.3,0.4,1-0.1,1.3c-0.4,0.3-0.9,0.3-1.3,0c-0.5-0.3-0.6-0.9-0.2-1.3c0,0,0.1-0.1,0-0.1
		C4.4,42.2,4.3,42,4.1,41.9z M4.1,35.3c-0.3,0.2-0.4,0.6-0.5,1C3.6,37.1,4,37.7,4.7,38c0.3,0.1,0.7,0.1,1,0.1
		c1.1-0.1,1.8-1.4,1.3-2.4c-0.1-0.2-0.2-0.3-0.3-0.4c0,0-0.1-0.1-0.1,0c-0.1,0.2-0.3,0.3-0.4,0.5c0,0,0.1,0.1,0.1,0.1
		c0.1,0.1,0.2,0.3,0.2,0.5c0,0.4-0.2,0.6-0.5,0.8c-0.4,0.2-0.8,0.2-1.2,0c-0.4-0.2-0.6-0.5-0.5-1c0-0.2,0.1-0.3,0.3-0.5
		C4.4,35.6,4.3,35.4,4.1,35.3z M3.7,28.3C4,28.2,4.2,28,4.4,27.9c0.4-0.2,0.7-0.5,1.1-0.7c0.1-0.1,0.2-0.1,0.3-0.1
		c0.4,0,0.8,0,1.1,0c0.1,0,0.1,0,0.1-0.1c0-0.1,0-0.3,0-0.4c0-0.1,0-0.1-0.1-0.1c-0.4,0-0.8,0-1.2,0c-0.1,0-0.2,0-0.3-0.1
		c-0.4-0.3-0.9-0.6-1.3-0.8c-0.2-0.1-0.3-0.2-0.5-0.3c0,0.2,0,0.4,0,0.7c0,0.1,0,0.2,0.1,0.2c0.3,0.2,0.6,0.4,1,0.6
		c0.1,0,0.1,0,0.2,0.1c-0.1,0-0.1,0.1-0.2,0.1c-0.3,0.2-0.6,0.4-1,0.5c-0.1,0-0.1,0.1-0.1,0.2C3.7,27.8,3.7,28,3.7,28.3z M5.7,15.5
		C5.7,15.5,5.7,15.5,5.7,15.5c-0.4,0-0.8,0-1.2,0c-0.2,0-0.2,0-0.2-0.2c0-0.2,0-0.4,0-0.6c0-0.1,0-0.1-0.1-0.1c-0.1,0-0.3,0-0.4,0
		c-0.1,0-0.1,0-0.1,0.1c0,0.6,0,1.2,0,1.9c0,0.1,0,0.3,0,0.4c0,0.1,0,0.1,0.1,0.1c0.1,0,0.3,0,0.4,0c0.1,0,0.1,0,0.1-0.1
		c0-0.2,0-0.4,0-0.6c0-0.2,0-0.2,0.2-0.2c0.5,0,1.1,0,1.6,0c0.3,0,0.5,0,0.8,0c0.2,0,0.2,0,0.2-0.1c0-0.1,0-0.3,0-0.4
		c0-0.1,0-0.1-0.1-0.1C6.5,15.5,6.1,15.5,5.7,15.5z"/>
	<path class="st0" d="M63.4,41.2c-0.1,0-0.1-0.1-0.2-0.1c-1.2-0.7-2.3-1.5-3.5-2.2c-1.8-1.2-3.6-2.3-5.4-3.5
		c-1.4-0.9-2.9-1.8-4.3-2.8c-0.1-0.1-0.2-0.1-0.2-0.3c0-3.7,0-7.4,0-11.2c0-0.1,0-0.2,0.2-0.3c1.3-0.8,2.7-1.7,4-2.5
		c1-0.6,2-1.3,3-1.9c0.6-0.4,1.3-0.8,1.9-1.2c1.4-0.9,2.8-1.8,4.2-2.6c0.1,0,0.1-0.1,0.2-0.1C63.4,22.1,63.4,31.7,63.4,41.2z"/>
	<path class="st0" d="M22.5,17.8c0-0.2,0-0.4,0.1-0.6c0.2-0.6,0.6-0.9,1.2-1c0.1,0,0.3,0,0.4,0c2.1,0,4.3,0,6.4,0c0.1,0,0.1,0,0.2,0
		c0.1,0,0.1,0,0.2,0c1.8,0,3.6,0,5.4,0c3.8,0,7.7,0,11.5,0c0.2,0,0.2,0,0.2,0.2c0,0.4-0.2,0.8-0.6,1.1c-0.3,0.2-0.6,0.3-0.9,0.3
		c-2.3,0-4.6,0-6.9,0c-0.3,0-0.3,0-0.3,0.3c0,0,0,0.1,0,0.1c0,0.3,0.1,0.5,0.3,0.7c0.3,0.2,0.6,0.3,0.9,0.4c0.5,0.1,0.9,0.2,1.4,0.2
		c0.4,0,0.9,0,1.3,0.1c0.9,0.2,1.5,0.7,1.8,1.5c0.2,0.6,0.4,1.3,0.3,1.9c0,0.4-0.1,0.8-0.3,1.1c-0.4,0.9-1,1.6-2,2
		c-0.7,0.3-1.4,0.5-2.2,0.7c-0.4,0.1-0.9,0.1-1.3,0.2c0,0.1,0,0.2,0.1,0.3c0.2,0.5,0.4,0.9,0.8,1.2c0.6,0.6,1.3,1,2.1,1.3
		c1.1,0.5,2.2,0.8,3.4,1c0.2,0.1,0.5,0.1,0.7,0.1c0.1,0,0.1,0,0.1,0.1c0,0.3-0.1,0.5-0.3,0.8c-0.1,0.1-0.3,0.2-0.5,0.2
		c-0.2,0-0.4,0-0.6,0c-0.1,0-0.1,0-0.1,0.1c0,0,0,0.1,0,0.1c0,2.7,0,5.4,0,8.1c0,0.1,0,0.1,0,0.2c-0.2,0-0.3,0-0.5-0.1
		c-0.4-0.3-0.6-0.6-0.7-1.1c0-0.1,0-0.1,0-0.2c0-2.3,0-4.6,0-6.9c0-0.3,0-0.2-0.2-0.2c-2.9,0-5.8,0-8.7,0c-0.1,0-0.2,0-0.3,0.2
		c-0.8,1.2-1.3,2.4-1.6,3.8c-0.1,0.6-0.2,1.3-0.1,1.9c0.1,0.4,0.3,0.8,0.6,1.2c0.3,0.3,0.6,0.4,0.9,0.4c0.2,0,0.3-0.1,0.5-0.2
		c0.2-0.2,0.2-0.6,0-0.8c-0.2-0.3-0.6-0.2-0.8,0.1c0,0.1-0.1,0.2-0.1,0.3c0,0,0,0.1-0.1,0.1c-0.1,0-0.1,0-0.1-0.1
		c-0.1-0.4,0.1-1,0.7-1c0.3,0,0.5,0.1,0.7,0.3c0.2,0.2,0.2,0.4,0.3,0.7c0.1,0.5-0.1,0.9-0.4,1.3c-0.3,0.3-0.6,0.3-1,0.3
		c-0.6,0-1.1-0.3-1.5-0.7c-0.5-0.5-0.7-1.1-0.9-1.8c-0.1-0.9-0.1-1.7,0.1-2.5c0.2-1.1,0.7-2.2,1.3-3.2c0,0,0.1-0.1,0.1-0.1
		c0,0-0.1,0-0.2,0c-0.8,0-1.6,0-2.4,0c-0.2,0-0.2,0-0.2,0.2c0,2.6,0,5.1,0,7.7c0,0.1,0,0.2,0,0.2c-0.2-0.2-0.4-0.3-0.7-0.4
		c-0.1,0-0.2,0-0.3-0.1c-0.1-0.3-0.2-0.6-0.1-1c0-0.1,0-0.2,0-0.2c0-0.3-0.1-0.6-0.2-0.9c-0.2-0.6-0.6-1.1-1-1.5
		c-0.3-0.3-0.7-0.4-1.1-0.4c-0.5,0.1-0.9,0.5-0.9,1c0,0.4,0.3,0.7,0.7,0.7c0.2,0,0.3-0.1,0.4-0.2c0.2-0.4,0.1-0.8-0.3-1
		c0,0-0.1,0-0.1,0c0.2-0.1,0.4-0.1,0.5,0c0.4,0,0.7,0.3,0.8,0.8c0.1,0.7-0.2,1.2-0.7,1.6c-0.2,0.1-0.4,0.2-0.6,0.2
		c-0.7,0-1.2-0.4-1.5-1c-0.5-0.9-0.3-2.3,0.9-3c0.3-0.2,0.7-0.3,1.1-0.3c0.1,0,0.1,0,0.1-0.1c0-0.3-0.2-0.5-0.4-0.7
		c-0.2-0.2-0.5-0.4-0.8-0.5c-0.3-0.1-0.5-0.3-0.8-0.4c-0.1-0.1-0.2-0.1-0.2-0.2c0.1,0,0.2,0,0.3,0c0.4,0,0.6-0.2,0.9-0.4
		c0,0,0.1-0.1,0.1-0.1c0.3,0.2,0.6,0.4,0.9,0.6c0.5,0.3,0.8,0.7,0.9,1.3c0.1,0.2,0.1,0.5,0.1,0.8c0,0.1,0,0.1,0.1,0.2
		c0.4,0.2,0.7,0.5,0.9,0.9c0,0,0,0.1,0.1,0.1c0-0.1,0-0.3,0-0.4c0-1.1,0-2.1,0-3.2c0-0.2,0-0.2-0.2-0.2c-0.4,0-0.9,0-1.3,0
		c-0.5,0-1,0-1.4,0c0.2-0.3,0.3-0.7,0.3-1.1c5.1,0,10.1,0,15.2,0c-1.9-0.5-3.5-1.5-4.4-3.3c0,0,0,0,0,0c0,0,0,0-0.1,0.1
		c-1.4,1.6-3.2,2.3-5.3,2.2c-1,0-1.9-1-1.9-2c0-2.8,0-5.5,0-8.3c0-0.6,0-1.2,0-1.7c0-0.2,0-0.2-0.2-0.2c-0.6,0-1.3,0-1.9,0
		c-0.1,0-0.2,0-0.3,0.1c-0.4,0.5-0.8,1-1.1,1.5c-0.9,1.3-1.6,2.6-2,4.1c-0.3,0.9-0.4,1.8-0.3,2.7c0.1,0.7,0.3,1.3,0.8,1.9
		c0.6,0.8,1.5,1.1,2.5,1c0.6,0,1-0.5,0.9-1.1c0-0.4-0.4-0.8-0.8-0.8c-0.4,0-0.8,0.2-1,0.6c0,0.1,0,0.2,0,0.3c0,0.1,0,0.1-0.2,0.1
		c-0.1,0-0.1-0.1-0.1-0.1c-0.1-0.3,0-0.5,0.1-0.8c0.3-0.6,0.9-0.9,1.6-0.7c1,0.2,1.4,1.3,1.3,2c-0.2,0.8-0.7,1.4-1.5,1.7
		c-0.4,0.1-0.8,0.1-1.2,0.1c0,0-0.1,0-0.1,0c-0.9,0-1.7-0.4-2.5-0.9c-1-0.7-1.5-1.7-1.8-2.9c-0.1-0.6-0.1-1.2-0.1-1.8
		c0-0.1,0-0.1,0-0.2c0-0.1,0-0.3,0.1-0.4c0.1-1,0.4-2,0.8-3c0.5-1.2,1.2-2.4,2.1-3.4c0,0,0.1-0.1,0.1-0.2c-0.1,0-0.1,0-0.2,0
		c-1,0-1.9,0-2.9,0C22.7,17.9,22.6,17.9,22.5,17.8z M32.9,22.7C32.9,22.7,32.9,22.7,32.9,22.7c0,1.7,0,3.4,0,5c0,0.1,0,0.1,0.1,0.1
		c1.1-0.1,2-0.5,2.8-1.3c0.8-0.7,1-1.6,0.9-2.7c0-0.2-0.2-0.4-0.4-0.6c-0.2-0.1-0.3-0.1-0.5-0.2c-0.6-0.2-1.2-0.2-1.8-0.3
		C33.8,22.9,33.3,22.9,32.9,22.7z M37.2,21.5c0-0.1,0-0.1,0-0.1c0-1.1,0-2.3,0-3.4c0-0.1,0-0.1-0.2-0.1c-1.3,0-2.7,0-4,0
		c-0.2,0-0.2,0-0.2,0.2c0,0.6,0,1.2,0,1.8c0,0.1,0,0.2,0.1,0.2c0.2,0.3,0.5,0.5,0.8,0.7c0.4,0.2,0.8,0.3,1.2,0.3
		c0.5,0,0.9,0.1,1.4,0.2C36.7,21.3,36.9,21.4,37.2,21.5z M43.4,22.1C43.4,22.1,43.4,22.1,43.4,22.1c0,0.1-0.1,0.1-0.1,0.2
		c-0.2,0.3-0.4,0.6-0.6,0.8c-0.4,0.3-0.9,0.6-1.4,0.8c-0.7,0.2-1.3,0.3-2,0.3c-0.2,0-0.2,0-0.2,0.2c0,0.2,0,0.5,0,0.7
		c0,0.1,0,0.1,0.1,0.2c0.8,0.1,1.6,0,2.4-0.2c0.7-0.2,1.3-0.7,1.7-1.3C43.5,23.2,43.5,22.7,43.4,22.1C43.5,22.2,43.4,22.2,43.4,22.1
		z M39.5,22.3c0.3,0,0.5-0.1,0.8-0.1c0.4-0.1,0.9-0.2,1.2-0.5c0.1-0.1,0.2-0.2,0.3-0.3c0.1-0.1,0-0.4-0.1-0.4c-0.1,0-0.2,0-0.3-0.1
		c-0.5-0.1-1-0.2-1.4-0.2c-0.1,0-0.3,0-0.4-0.1c0,0-0.1,0-0.1,0C39.5,21.1,39.5,21.7,39.5,22.3z"/>
	<path class="st0" d="M37.7,32.2c-0.4,0.7-0.7,1.4-0.8,2.2c-0.1,0.6-0.1,1.1,0,1.7c0.1,0.4,0.2,0.7,0.4,1.1c0.3,0.5,0.7,1,1.3,1.3
		c0.9,0.5,2.4,0.3,3-1c0.5-1,0.5-2,0.1-3c-0.1-0.3-0.3-0.5-0.5-0.7c-0.4-0.3-0.8-0.4-1.2,0c-0.2,0.2-0.3,0.3-0.4,0.6
		c0,0,0,0.1,0,0.1c0,0.3,0.1,0.5,0.3,0.7c0.1,0.2,0.2,0.3,0.4,0.2c0.2,0,0.3-0.2,0.4-0.4c0.1-0.4-0.1-0.7-0.4-0.8c0,0-0.1,0-0.1-0.1
		c0-0.1,0-0.1,0.1-0.1c0.3-0.1,0.5,0,0.6,0.2c0.3,0.4,0.4,0.9,0.1,1.4c-0.4,0.8-1.3,0.8-1.8,0.5c-0.4-0.2-0.6-0.5-0.7-0.9
		c-0.3-0.9-0.2-1.8,0.4-2.5c0.5-0.7,1.4-0.8,2.2-0.5c0.5,0.2,0.8,0.5,1.1,0.9c0.4,0.6,0.6,1.3,0.7,2c0.1,0.9,0,1.9-0.4,2.7
		c-0.2,0.5-0.4,0.9-0.8,1.2c-0.6,0.6-1.4,0.9-2.3,0.9c-1.2,0-2.1-0.6-2.8-1.5c-0.5-0.8-0.8-1.6-0.9-2.5c0-0.6,0-1.1,0.1-1.7
		c0.1-0.6,0.4-1.1,0.8-1.5c0.2-0.2,0.5-0.4,0.7-0.6C37.6,32.3,37.6,32.2,37.7,32.2z"/>
	<path class="st0" d="M48.9,26.7c0,1.8,0,3.7,0,5.5c0,0.1,0,0.1,0,0.2c0,0.3-0.2,0.4-0.4,0.4c-0.3,0-0.5-0.2-0.5-0.4
		c0,0,0-0.1,0-0.1c0-3.7,0-7.3,0-11c0,0,0-0.1,0-0.1c0-0.4,0.4-0.6,0.7-0.4c0.1,0.1,0.2,0.2,0.2,0.3c0,0.1,0,0.1,0,0.2
		C49,23.1,48.9,24.9,48.9,26.7z"/>
	
		<ellipse transform="matrix(1.251318e-02 -0.9999 0.9999 1.251318e-02 8.5264 34.8015)" class="st0" cx="21.9" cy="13.1" rx="0.6" ry="0.6"/>
	<ellipse transform="matrix(5.499434e-03 -1 1 5.499434e-03 11.5183 37.7498)" class="st0" cx="24.7" cy="13.1" rx="0.6" ry="0.6"/>
	
		<ellipse transform="matrix(1 -3.241620e-03 3.241620e-03 1 -4.794515e-02 7.265860e-02)" class="st0" cx="22.4" cy="14.8" rx="0.6" ry="0.6"/>
	<ellipse transform="matrix(6.592039e-03 -1 1 6.592039e-03 9.3511 38.89)" class="st0" cx="24.2" cy="14.7" rx="0.6" ry="0.6"/>
	
		<ellipse transform="matrix(1.676284e-02 -0.9999 0.9999 1.676284e-02 10.9812 35.1074)" class="st0" cx="23.3" cy="12" rx="0.6" ry="0.6"/>
	<path class="st0" d="M23.3,13.9c-0.2,0-0.4-0.2-0.4-0.4c0-0.2,0.2-0.4,0.4-0.4c0.2,0,0.4,0.2,0.4,0.4
		C23.7,13.7,23.6,13.9,23.3,13.9z"/>
	
		<ellipse transform="matrix(2.581279e-02 -0.9997 0.9997 2.581279e-02 -3.8848 22.1817)" class="st0" cx="9.4" cy="13.1" rx="0.6" ry="0.6"/>
	<path class="st0" d="M12.4,14.8c0,0.4-0.3,0.6-0.7,0.6c-0.4,0-0.6-0.3-0.6-0.7c0-0.3,0.3-0.6,0.7-0.6
		C12.2,14.1,12.4,14.4,12.4,14.8z"/>
	
		<ellipse transform="matrix(0.9999 -1.304691e-02 1.304691e-02 0.9999 -0.1697 0.1615)" class="st0" cx="12.3" cy="13.1" rx="0.6" ry="0.6"/>
	
		<ellipse transform="matrix(1 -3.661512e-03 3.661512e-03 1 -5.422161e-02 3.650533e-02)" class="st0" cx="9.9" cy="14.8" rx="0.6" ry="0.6"/>
	
		<ellipse transform="matrix(1 -2.439856e-03 2.439856e-03 1 -2.917317e-02 2.661693e-02)" class="st0" cx="10.9" cy="12" rx="0.6" ry="0.6"/>
	<path class="st0" d="M11.3,13.5c0,0.2-0.2,0.4-0.4,0.4c-0.2,0-0.4-0.2-0.4-0.4c0-0.2,0.2-0.4,0.4-0.4
		C11.1,13.1,11.3,13.3,11.3,13.5z"/>
	<path class="st0" d="M5.4,13.7c-0.3,0-0.6-0.1-0.8-0.2c-0.5-0.4-0.5-1.4,0.2-1.7c0.3-0.1,0.7-0.1,1,0c0.4,0.2,0.6,0.5,0.6,1
		c0,0.4-0.3,0.8-0.7,0.9C5.6,13.7,5.5,13.7,5.4,13.7z"/>
	<path class="st0" d="M5.4,20.1c-0.1,0-0.3,0-0.4,0c-0.5-0.1-0.8-0.5-0.7-1c0-0.5,0.3-0.8,0.8-0.9c0.2,0,0.5,0,0.7,0
		c0.4,0.1,0.7,0.5,0.7,1c0,0.4-0.3,0.8-0.7,0.9C5.6,20.1,5.5,20.1,5.4,20.1z"/>
</g>
<g>
	<path class="st0" d="M183.7,23.3c0.3,0.1,0.3,0.3,0.3,0.5c0.5,1.5,0.9,3,1.4,4.5c0.7,2.1,1.3,4.2,2,6.4c0.1,0.4,0.3,0.6,0.7,0.5
		c0.4,0,0.8,0,1.2,0c0.8,0,0.7,0.1,1-0.7c1.1-3.4,2.2-6.8,3.3-10.2c0.1-0.3,0.2-0.7,0.5-1.1c0,0.4,0,0.7,0,1c0,3.3,0,6.6,0,9.9
		c0,0.2,0,0.4,0,0.5c0,0.4,0.1,0.6,0.5,0.6c0.7,0,1.5,0,2.2,0c0.5,0,0.6-0.1,0.6-0.6c0-4.9,0-9.8,0-14.7c0-0.4-0.1-0.6-0.6-0.6
		c-1.2,0-2.5,0-3.7,0c-0.9,0-0.7-0.1-1,0.8c-1,2.9-2,5.8-3,8.7c-0.1,0.3-0.1,0.5-0.4,0.8c-0.4-1.2-0.8-2.3-1.2-3.5
		c-0.7-2.1-1.4-4.2-2.1-6.2c-0.1-0.3-0.1-0.6-0.5-0.6c-1.4,0-2.9,0-4.3,0c-0.3,0-0.4,0.2-0.4,0.4c0,0.2,0,0.4,0,0.6
		c0,4.2,0,8.5,0,12.7c0,0.5,0,1,0,1.5c0,0.4,0.1,0.6,0.5,0.6c0.8,0,1.5,0,2.3,0c0.4,0,0.6-0.1,0.5-0.5c0-0.2,0-0.4,0-0.6
		C183.7,30.5,183.7,26.9,183.7,23.3z"/>
	<path class="st0" d="M102.7,27.2C102.7,27.2,102.7,27.2,102.7,27.2c0,2.1,0,4.2,0,6.3c0,0.4,0,0.8,0,1.2c0,0.3,0.1,0.4,0.4,0.4
		c0.9,0,1.8,0,2.6,0c0.2,0,0.3-0.1,0.3-0.3c0-0.2,0-0.4,0-0.6c0-1.8,0-3.6,0-5.4c0-0.3,0-0.6,0.4-0.6c1.9,0,3.8,0,5.7,0
		c0.3,0,0.4,0.1,0.4,0.4c0,0.2,0,0.4,0,0.6c0,1.8,0,3.5,0,5.3c0,0.4,0.1,0.6,0.5,0.6c0.8,0,1.5,0,2.3,0c0.4,0,0.5-0.1,0.5-0.5
		c0-0.1,0-0.3,0-0.4c0-4.7,0-9.3,0-14c0-0.1,0-0.3,0-0.4c0-0.4-0.1-0.5-0.5-0.5c-0.7,0-1.3,0-2,0c-0.8,0-0.8,0-0.8,0.8
		c0,1.5,0,3,0,4.6c0,0.5-0.2,0.6-0.6,0.6c-1.6,0-3.3,0-4.9,0c-0.1,0-0.3,0-0.4,0c-0.4,0-0.7-0.1-0.6-0.6c0-0.2,0-0.5,0-0.7
		c0-1.4,0-2.8,0-4.1c0-0.4-0.1-0.5-0.5-0.5c-0.7,0-1.4,0-2.1,0c-0.7,0-0.7,0-0.7,0.7C102.7,22.4,102.7,24.8,102.7,27.2z"/>
	<path class="st0" d="M147,27.2C147,27.2,147,27.2,147,27.2c0-2.4,0-4.8,0-7.2c0-0.7,0-0.7-0.7-0.7c-0.6,0-1.3,0-1.9,0
		c-0.7,0-0.7,0-0.7,0.7c0,1.5,0,3,0,4.6c0,0.7,0,0.7-0.7,0.7c-1.5,0-3,0-4.5,0c-0.2,0-0.5,0-0.7,0c-0.7,0-0.7,0-0.7-0.7
		c0-0.2,0-0.4,0-0.5c0-1.4,0-2.8,0-4.2c0-0.3,0-0.5-0.4-0.5c-0.8,0-1.7,0-2.5,0c-0.2,0-0.4,0.1-0.4,0.4c0,0.2,0,0.4,0,0.6
		c0,3.9,0,7.7,0,11.6c0,0.9,0,1.8,0,2.6c0,0.6,0,0.6,0.7,0.7c0.6,0,1.2,0,1.8,0c0.8,0,0.8,0,0.8-0.8c0-1.8,0-3.6,0-5.4
		c0-0.4,0.1-0.6,0.6-0.6c1.1,0,2.3,0,3.4,0c0.6,0,1.2,0,1.8,0c0.7,0,0.7,0,0.7,0.7c0,0.2,0,0.4,0,0.5c0,1.7,0,3.4,0,5.1
		c0,0.5,0.1,0.6,0.6,0.6c0.7,0,1.3,0,2,0c0.7,0,0.7,0,0.7-0.7C147,32,147,29.6,147,27.2z"/>
	<path class="st0" d="M163.3,27.2C163.3,27.2,163.3,27.2,163.3,27.2c0-2.4,0-4.8,0-7.2c0-0.7,0-0.7-0.6-0.7c-0.7,0-1.3,0-2,0
		c-0.6,0-0.6,0-0.6,0.6c0,1.6,0,3.1,0,4.7c0,0.6,0,0.6-0.6,0.6c-1.4,0-2.9,0-4.3,0c-0.5,0-1.2,0.2-1.5-0.1c-0.3-0.3-0.1-1-0.1-1.5
		c0-1.3,0-2.5,0-3.8c0-0.4-0.1-0.6-0.6-0.6c-0.8,0-1.6,0-2.4,0c-0.3,0-0.4,0.1-0.4,0.4c0,0.2,0,0.4,0,0.5c0,4.7,0,9.3,0,14
		c0,0.2,0,0.4,0,0.5c0,0.3,0.1,0.4,0.4,0.4c0.7,0,1.5,0,2.2,0c0.7,0,0.7,0,0.7-0.7c0-1.8,0-3.6,0-5.4c0-0.7,0-0.7,0.7-0.7
		c1.5,0,3,0,4.5,0c0.3,0,0.6,0,1,0c0.3,0,0.4,0.1,0.4,0.4c0,0.2,0,0.4,0,0.6c0,1.7,0,3.4,0,5.1c0,0.7,0,0.7,0.7,0.7
		c0.6,0,1.3,0,1.9,0c0.7,0,0.7,0,0.7-0.7C163.3,32,163.3,29.6,163.3,27.2z"/>
	<path class="st0" d="M74.6,27.2C74.6,27.2,74.6,27.2,74.6,27.2c0,2.4,0,4.8,0,7.2c0,0.7,0,0.7,0.7,0.7c2.9,0,5.7,0,8.6,0
		c0.3,0,0.6,0,1,0c0.3,0,0.4-0.1,0.4-0.4c0-0.6,0-1.2,0-1.8c0-1.1,0.1-1-1-1c-1.9,0-3.8,0-5.7,0c-0.6,0-0.6,0-0.6-0.6
		c0-0.6,0-1.2,0-1.8c0-0.8,0-0.8,0.8-0.8c1.7,0,3.3,0,5,0c0.7,0,0.7,0,0.7-0.8c0-0.4,0-0.8,0-1.1c0-1.3,0-1.3-1.2-1.3
		c-1.6,0-3.1,0-4.7,0c-0.6,0-0.7,0-0.7-0.7c0-0.6,0-1.2,0-1.8c0-0.4,0.1-0.6,0.5-0.6c0.2,0,0.4,0,0.5,0c1.7,0,3.5,0,5.2,0
		c0.7,0,0.7,0,0.8-0.8c0-0.6,0-1.2,0-1.8c0-0.6,0-0.6-0.6-0.6c-3,0-6,0-9,0c-0.6,0-0.6,0-0.6,0.6C74.6,22.4,74.6,24.8,74.6,27.2z"/>
	<path class="st0" d="M100.4,21.2c-0.2-0.4-0.5-0.7-0.9-0.9c-1.1-0.9-2.4-1.3-3.8-1.4c-4-0.2-7.2,2-8.2,5.7
		c-0.5,1.9-0.5,3.8,0.1,5.6c0.3,1.1,0.9,2.1,1.7,2.9c2.3,2.3,5.1,2.9,8.2,2.1c1.2-0.3,2.2-1,3-1.9c0.2-0.3,0.3-0.5,0-0.8
		c-0.7-0.5-1.4-1-2-1.6c-0.3-0.2-0.4-0.2-0.6,0.1c-1.4,1.9-4.8,1.9-6.3-0.7c-1.2-2-1.2-4.1-0.1-6.2c1.3-2.3,4.2-2.8,6.2-1.1
		c0.2,0.2,0.3,0.3,0.6,0.1C98.9,22.5,99.7,21.9,100.4,21.2z"/>
	<path class="st0" d="M131.5,21.2c-1.2-1.5-2.7-2.1-4.5-2.2c-3.8-0.3-7,1.7-8.2,5.1c-0.5,1.5-0.6,3.1-0.4,4.7
		c0.6,5.3,6.5,8.4,11.3,6.1c0.8-0.4,1.5-0.9,2-1.6c0.2-0.2,0.3-0.4,0-0.6c-0.8-0.6-1.6-1.2-2.4-1.9c-0.2,0.2-0.4,0.4-0.6,0.6
		c-0.6,0.7-1.4,1-2.3,1c-1.8,0.1-3.1-0.7-3.9-2.2c-1-1.8-1-3.7-0.1-5.6c0.8-1.8,2.6-2.7,4.5-2.4c0.9,0.1,1.6,0.6,2.2,1.2
		C129.8,22.6,130.7,22,131.5,21.2z"/>
	<path class="st0" d="M164.5,19.3c0.7,1.1,1.2,2.2,1.9,3.2c1.2,1.7,2.2,3.5,3.3,5.2c0.3,0.5,0.4,0.9,0.4,1.5c0,1.8,0,3.6,0,5.4
		c0,0.6,0,0.6,0.6,0.6c0.7,0,1.4,0,2.1,0c0.5,0,0.6-0.2,0.6-0.6c0-1.8,0-3.6,0-5.4c0-0.5,0.1-0.9,0.4-1.3c1.3-2.1,2.6-4.1,3.9-6.2
		c0.4-0.7,1-1.4,1.3-2.3c-1.1,0-2.1,0-3.1,0c-0.5,0-0.7,0.2-1,0.6c-0.9,1.5-1.7,3-2.6,4.6c-0.1,0.2-0.2,0.5-0.5,0.7
		c-0.1-0.3-0.3-0.5-0.4-0.8c-0.8-1.5-1.7-3-2.5-4.5c-0.2-0.4-0.4-0.6-0.9-0.5C166.9,19.3,165.8,19.3,164.5,19.3z"/>
	<path class="st0" d="M224.8,28.8C224.8,28.8,224.8,28.8,224.8,28.8c0-1.8,0-3.7,0-5.5c0-1,0-0.9,1-0.9c1,0,1.9,0,2.9,0
		c0.4,0,0.5-0.1,0.5-0.5c0-0.6,0-1.2,0-1.8c0-0.7,0-0.7-0.7-0.7c-2.9,0-5.9,0-8.8,0c-0.6,0-1.3,0-1.9,0c-0.4,0-0.6,0.1-0.6,0.6
		c0,0.6,0,1.3,0,1.9c0,0.4,0.2,0.5,0.6,0.5c1,0,2,0,3,0c0.8,0,0.8,0,0.8,0.8c0,2.5,0,5,0,7.5c0,1.3,0,2.5,0,3.8c0,0.7,0,0.7,0.7,0.7
		c0.6,0,1.3,0,1.9,0c0.7,0,0.7,0,0.7-0.7C224.8,32.6,224.8,30.7,224.8,28.8z"/>
	<path class="st0" d="M246.3,25.2c-0.8-3.9-3.8-6.2-7.9-6.3c-0.4,0-0.8,0-1.1,0.1c-3.2,0.3-5.7,2.3-6.7,5.3c-0.6,1.9-0.6,3.9,0,5.8
		c0.8,2.6,2.5,4.3,5.1,5.1c1.3,0.4,2.7,0.5,4.1,0.3c2.9-0.4,5-1.9,6.1-4.7C246.6,29,246.7,27.1,246.3,25.2z M242.6,29.5
		c-0.8,2-2.5,3-4.8,2.9c-1.9-0.1-3.5-1.5-4.1-3.5c-0.1-0.5-0.2-1.1-0.2-1.4c0-1.5,0.3-2.7,1.2-3.7c1.9-2.4,6.5-2.2,7.9,1.1
		C243.2,26.4,243.2,27.9,242.6,29.5z"/>
	<path class="st0" d="M215.6,23.7c-0.9-2.4-2.8-3.9-5.3-4.5c-1.2-0.3-2.4-0.3-3.7-0.1c-2.9,0.5-5,2-6.1,4.7
		c-0.8,1.9-0.9,3.8-0.4,5.8c0.9,3.8,3.9,6.1,8.2,6.1c0.2,0,0.7,0,1.1-0.1c2.6-0.4,4.7-1.7,5.9-4.1C216.5,28.8,216.6,26.3,215.6,23.7
		z M212.5,29.2c-0.7,2.1-2.4,3.2-4.6,3.2c-2.1,0-3.8-1.4-4.3-3.4c-0.2-0.6-0.2-1.1-0.2-1.6c0-0.7,0-1.2,0.2-1.7
		c0.6-2.3,2.4-3.6,4.9-3.5c2.2,0.1,3.9,1.6,4.3,3.9C212.9,27.1,212.8,28.2,212.5,29.2z"/>
</g>
</svg>
